<?xml version="1.0" encoding="iso-8859-1"?>
<!-- Generator: Adobe Illustrator 19.0.0, SVG Export Plug-In . SVG Version: 6.00 Build 0)  -->
<svg version="1.1" id="Capa_1" xmlns="http://www.w3.org/2000/svg" xmlns:xlink="http://www.w3.org/1999/xlink" x="0px" y="0px"
	 viewBox="0 0 468.293 468.293" style="enable-background:new 0 0 468.293 468.293;" xml:space="preserve">
<g>
	<polygon style="fill:#64798A;" points="346.442,103.822 319.328,103.822 324.308,57.203 341.462,57.203 	"/>
	<circle style="fill:#64798A;" cx="332.887" cy="37.526" r="37.526"/>
	<polygon style="fill:#64798A;" points="169.232,103.822 142.118,103.822 147.098,57.203 164.252,57.203 	"/>
	<circle style="fill:#64798A;" cx="155.673" cy="37.526" r="37.526"/>
	<path style="fill:#64798A;" d="M83.465,223.852H44.147c-1.542,0-3.031-0.559-4.193-1.573l-9.833-8.585
		c-2.542-2.219-4-5.429-4-8.803v-5.318h9.96v6.102l7.608,6.643c1.161,1.014,2.651,1.573,4.193,1.573h35.582V223.852z"/>
	<path style="fill:#64798A;" d="M423.592,223.852h-30.184v-9.96h26.449c1.899,0,3.734-0.688,5.164-1.937l7.19-6.279v-6.102h9.96
		v7.06c0,2.267-0.98,4.424-2.688,5.915l-10.728,9.366C427.326,223.164,425.491,223.852,423.592,223.852z"/>
</g>
<path style="fill:#F7BE56;" d="M410.355,227.88l-9.92-113.971c-1.568-18.023-16.657-31.855-34.748-31.855H102.606
	c-18.09,0-33.178,13.832-34.748,31.855l-9.92,113.971h3.226v157.41h345.965V227.88H410.355z"/>
<path style="fill:#3A556A;" d="M59.997,378.235l88.122,47.886c3.482,1.892,7.383,2.884,11.346,2.884h149.361
	c3.963,0,7.863-0.991,11.346-2.883l88.123-47.886H59.997z"/>
<g>
	<path style="fill:#64798A;" d="M31.1,155.511c-10.969,0-19.944,8.975-19.944,19.945v16.275c0,10.969,8.975,19.945,19.944,19.945
		c10.97,0,19.946-8.975,19.946-19.945v-16.275C51.046,164.487,42.071,155.511,31.1,155.511z"/>
	<path style="fill:#64798A;" d="M437.192,156.886c10.432,0,18.968,8.536,18.968,18.969v15.479c0,10.433-8.536,18.969-18.968,18.969
		c-10.434,0-18.97-8.536-18.97-18.969v-15.479C418.223,165.422,426.759,156.886,437.192,156.886z"/>
</g>
<g>
	<path style="fill:#FCD462;" d="M353.947,348.285H337.8l-6.735-100.444c-0.367-5.47,2.715-10.59,7.722-12.825l39.155-17.484
		c5.228-2.334,11.222,1.058,11.913,6.742l0.378,3.112c0.503,4.141,0.099,8.342-1.184,12.311L353.947,348.285z"/>
	<path style="fill:#FCD462;" d="M129.436,234.984l-37.708-16.837c-5.608-2.504-11.94,1.578-11.974,7.719
		c-0.036,6.188,0.788,12.352,2.443,18.314l25.664,117.295h22.631l6.656-113.563C137.563,242.408,134.476,237.235,129.436,234.984z"
		/>
</g>
<g>
	<path style="fill:#F7BE56;" d="M66.481,225.925c-26.434,0-47.864,21.429-47.864,47.865v76.639h95.729V273.79
		C114.345,247.355,92.915,225.925,66.481,225.925z"/>
	<path style="fill:#F7BE56;" d="M401.812,225.925c-26.434,0-47.864,21.429-47.864,47.865v76.639h95.728V273.79
		C449.676,247.355,428.246,225.925,401.812,225.925z"/>
</g>
<path style="fill:#EBF0F3;" d="M426.436,272.268c0-13.599-11.025-24.624-24.625-24.624c-13.598,0-24.624,11.025-24.624,24.624
	c0,13.6,11.025,24.624,24.624,24.624C415.411,296.893,426.436,285.868,426.436,272.268z"/>
<circle style="fill:#D15241;" cx="415.906" cy="323.746" r="9.959"/>
<circle style="fill:#EBF0F3;" cx="66.498" cy="272.297" r="24.626"/>
<circle style="fill:#D15241;" cx="80.59" cy="323.746" r="9.959"/>
<g>
	<path style="fill:#27A2DB;" d="M366.669,101.886H101.623c-0.037,0.179-0.14,0.326-0.169,0.508l-14.54,98.929h294.471
		l-14.546-98.929C366.81,102.211,366.707,102.064,366.669,101.886z"/>
	<path style="fill:#27A2DB;" d="M366.669,101.886H101.623c-0.037,0.179-14.709,99.437-14.709,99.437h294.471l-14.546-98.929
		C366.81,102.211,366.707,102.064,366.669,101.886z"/>
</g>
<path style="fill:#EBF0F3;" d="M135.511,350.429v15.092c0,18.558,15.044,33.602,33.602,33.602h130.065
	c18.559,0,33.604-15.045,33.604-33.604v-15.091H135.511z"/>
<g>
	<path style="fill:#64798A;" d="M361.437,382.938v45.988c0,21.741,17.625,39.366,39.366,39.366
		c21.741,0,39.366-17.625,39.366-39.366v-45.988H361.437z"/>
	<path style="fill:#64798A;" d="M28.122,382.938v45.988c0,21.741,17.625,39.366,39.366,39.366s39.366-17.625,39.366-39.366v-45.988
		H28.122z"/>
</g>
<g>
	<rect x="255.438" y="385.311" style="fill:#D5D6DB;" width="19.918" height="13.837"/>
	<rect x="224.156" y="385.311" style="fill:#D5D6DB;" width="19.918" height="13.837"/>
	<rect x="192.924" y="385.311" style="fill:#D5D6DB;" width="19.918" height="13.837"/>
	<path style="fill:#D5D6DB;" d="M360.43,350.429v42.055h90.91c6.329,0,11.46-5.131,11.46-11.46v-19.134
		c0-6.329-5.131-11.46-11.46-11.46H360.43z"/>
	<path style="fill:#D5D6DB;" d="M5.492,361.889v19.134c0,6.329,5.131,11.46,11.46,11.46h90.91v-42.055h-90.91
		C10.623,350.429,5.492,355.56,5.492,361.889z"/>
</g>
<path style="fill:#FCD462;" d="M312.238,251.526H156.056c-3.992,0-7.229,3.236-7.229,7.228v69.635c0,3.992,3.237,7.228,7.229,7.228
	h156.182c3.992,0,7.229-3.236,7.229-7.228v-69.635C319.467,254.762,316.23,251.526,312.238,251.526z"/>
<g>
	<path style="fill:#E1E6E9;" d="M325.569,348.956v45.001c0,3.541,2.871,6.412,6.412,6.412h22.037c3.541,0,6.412-2.871,6.412-6.412
		v-45.001c0-3.541-2.871-6.412-6.412-6.412h-22.037C328.44,342.544,325.569,345.414,325.569,348.956z"/>
	<path style="fill:#E1E6E9;" d="M107.863,348.956v45.001c0,3.541,2.871,6.412,6.412,6.412h22.037c3.541,0,6.412-2.871,6.412-6.412
		v-45.001c0-3.541-2.871-6.412-6.412-6.412h-22.037C110.734,342.544,107.863,345.414,107.863,348.956z"/>
</g>
<circle style="fill:#FCD462;" cx="155.673" cy="37.526" r="26.562"/>
<path style="fill:#FFFFFF;" d="M139.186,21.034c-4.304,4.28-6.355,10.995-4.241,16.49c2.078-5.378,4.489-9.447,7.904-12.827
	c3.388-3.406,7.448-5.811,12.827-7.903C150.18,14.666,143.457,16.724,139.186,21.034z"/>
<circle style="fill:#FCD462;" cx="332.887" cy="37.526" r="26.562"/>
<path style="fill:#FFFFFF;" d="M316.396,21.034c-4.304,4.28-6.355,10.995-4.241,16.49c2.078-5.378,4.489-9.447,7.904-12.827
	c3.388-3.406,7.448-5.811,12.827-7.903C327.391,14.666,320.668,16.724,316.396,21.034z"/>
<g>
	<path style="fill:#EBF0F3;" d="M114.347,163.029c-0.94,0-1.874-0.396-2.529-1.174c-1.187-1.394-1.018-3.489,0.383-4.675
		l19.655-16.704c1.407-1.187,3.502-1.018,4.682,0.376c1.187,1.401,1.018,3.495-0.376,4.682l-19.668,16.704
		C115.871,162.769,115.105,163.029,114.347,163.029z"/>
	<path style="fill:#EBF0F3;" d="M142.632,139.003c-0.94,0-1.874-0.396-2.529-1.167c-1.187-1.401-1.018-3.495,0.376-4.682
		l17.962-15.258c1.394-1.187,3.495-1.018,4.675,0.383c1.187,1.394,1.018,3.489-0.383,4.675l-17.949,15.258
		C144.156,138.744,143.398,139.003,142.632,139.003z"/>
	<path style="fill:#EBF0F3;" d="M127.977,184.376c-0.94,0-1.874-0.396-2.529-1.167c-1.187-1.401-1.018-3.495,0.376-4.682
		l32.611-27.709c1.407-1.187,3.502-1.012,4.682,0.376c1.187,1.401,1.018,3.495-0.376,4.682l-32.611,27.709
		C129.501,184.116,128.736,184.376,127.977,184.376z"/>
	<path style="fill:#EBF0F3;" d="M173.946,145.319c-0.94,0-1.874-0.396-2.529-1.174c-1.187-1.394-1.018-3.489,0.383-4.675
		l19.253-16.361c1.401-1.187,3.495-1.018,4.675,0.383c1.187,1.394,1.018,3.489-0.383,4.675l-19.253,16.361
		C175.47,145.06,174.705,145.319,173.946,145.319z"/>
</g>
<g>
	<path style="fill:#64798A;" d="M295.932,326.746c-3.968,0-7.184-3.216-7.184-7.184V265.92c0-3.968,3.216-7.184,7.184-7.184
		c3.968,0,7.184,3.216,7.184,7.184v53.641C303.117,323.53,299.901,326.746,295.932,326.746z"/>
	<path style="fill:#64798A;" d="M271.219,326.746c-3.968,0-7.184-3.216-7.184-7.184V265.92c0-3.968,3.216-7.184,7.184-7.184
		c3.968,0,7.184,3.216,7.184,7.184v53.641C278.404,323.53,275.187,326.746,271.219,326.746z"/>
	<path style="fill:#64798A;" d="M246.506,326.746c-3.968,0-7.184-3.216-7.184-7.184V265.92c0-3.968,3.216-7.184,7.184-7.184
		c3.968,0,7.184,3.216,7.184,7.184v53.641C253.69,323.53,250.474,326.746,246.506,326.746z"/>
	<path style="fill:#64798A;" d="M221.787,326.746c-3.968,0-7.184-3.216-7.184-7.184V265.92c0-3.968,3.216-7.184,7.184-7.184
		c3.968,0,7.184,3.216,7.184,7.184v53.641C228.972,323.53,225.756,326.746,221.787,326.746z"/>
	<path style="fill:#64798A;" d="M197.074,326.746c-3.968,0-7.184-3.216-7.184-7.184V265.92c0-3.968,3.216-7.184,7.184-7.184
		c3.968,0,7.184,3.216,7.184,7.184v53.641C204.259,323.53,201.043,326.746,197.074,326.746z"/>
	<path style="fill:#64798A;" d="M172.361,326.746c-3.968,0-7.184-3.216-7.184-7.184V265.92c0-3.968,3.216-7.184,7.184-7.184
		c3.968,0,7.184,3.216,7.184,7.184v53.641C179.546,323.53,176.329,326.746,172.361,326.746z"/>
</g>
<g>
</g>
<g>
</g>
<g>
</g>
<g>
</g>
<g>
</g>
<g>
</g>
<g>
</g>
<g>
</g>
<g>
</g>
<g>
</g>
<g>
</g>
<g>
</g>
<g>
</g>
<g>
</g>
<g>
</g>
</svg>
